<?xml version="1.0" encoding="UTF-8"?>
<svg id="Layer_2" xmlns="http://www.w3.org/2000/svg" version="1.1" viewBox="0 0 694.4 68.7">
  <!-- Generator: Adobe Illustrator 29.0.1, SVG Export Plug-In . SVG Version: 2.1.0 Build 192)  -->
  <defs>
    <style>
      .st0 {
        isolation: isolate;
        opacity: .6;
      }

      .st1 {
        fill: #00648c;
      }

      .st2 {
        fill: #963484;
      }

      .st3 {
        fill: #009a9a;
      }
    </style>
  </defs>
  <g id="Layer_1-2">
    <g>
      <g>
        <path d="M173,49h-24.9l-4.1,9h-9.7l21.3-47.5h9.8l21.3,47.5h-9.8l-4-9ZM160.6,20.4l-8.8,20.2h17.7l-8.8-20.2Z"/>
        <path d="M233,58h-10.7l-13.9-15.9h-8.6v15.9h-9V10.4c7.5,0,15.1,0,22.6,0,11.2,0,17.1,7.5,17.1,15.8s-3,13.1-12,14.9l14.4,16.2v.6h0ZM199.9,18.8v15.2h13.6c5.7,0,8.1-3.8,8.1-7.6s-2.5-7.6-8.1-7.6h-13.6Z"/>
        <path d="M270.4,49h-24.9l-4.1,9h-9.7l21.3-47.5h9.8l21.3,47.5h-9.8l-4-9h0ZM258,20.4l-8.8,20.2h17.7l-8.8-20.2Z"/>
        <path d="M319.5,10.4h9v47.6h-5.6c0,0-25-32.1-25-32.1v32.1h-9V10.4h7.3l23.3,29.5V10.4h0Z"/>
        <path d="M349,18.6h-15.1v-8.1h39.1v8.1h-15.1v39.4h-9V18.6h0Z"/>
        <path d="M378.6,58V10.4h8.9v47.5h-8.9Z"/>
        <path d="M437.8,52c-4.9,4.8-11.2,7.1-18.1,7.1-17.7,0-25.1-12.2-25.2-24.5,0-12.4,8-25.1,25.2-25.1s12.6,2.4,17.5,7.3l-6,5.8c-3.1-3.1-7.3-4.5-11.5-4.5-11.5,0-16.4,8.6-16.4,16.5,0,7.9,4.6,16.1,16.4,16.1s8.8-1.7,12-4.8l6.1,6.2h0Z"/>
        <path d="M472.7,13.5c3.7,2,6.5,4.8,8.6,8.4s3.1,7.7,3.1,12.3-1,8.7-3.1,12.3c-2,3.6-4.9,6.4-8.6,8.4-3.7,2-7.9,3-12.6,3h-15.9V10.4h15.9c4.7,0,8.9,1,12.6,3h0ZM471.2,52.4c3.2-1.8,5.7-4.2,7.5-7.4s2.7-6.8,2.7-10.8-.9-7.6-2.7-10.8c-1.8-3.2-4.3-5.6-7.5-7.4-3.2-1.8-6.9-2.6-10.9-2.6h-12.9v41.7h12.9c4.1,0,7.8-.9,11-2.6Z"/>
        <path d="M494.9,10.4h3v47.5h-3V10.4Z"/>
        <path d="M550.8,33.5v17.7c-2.5,2.5-5.2,4.3-8.2,5.6-3,1.3-6.3,1.9-9.7,1.9s-9-1-12.7-3.1-6.6-5-8.6-8.7-3.1-8-3.1-12.8,1-9.1,3.1-12.8,5-6.6,8.7-8.7c3.7-2.1,8-3.1,12.8-3.1s12.2,2.4,17,7.1l-2,2.1c-2-2-4.3-3.6-6.9-4.7-2.6-1.1-5.3-1.6-8.1-1.6-4.2,0-8,.9-11.2,2.7-3.3,1.8-5.8,4.4-7.6,7.6-1.8,3.3-2.7,7-2.7,11.3s.9,8,2.7,11.2,4.3,5.8,7.6,7.7,6.9,2.8,11.1,2.8,5.6-.5,8.2-1.6,4.9-2.5,6.8-4.3v-13.6h-17.1v-2.8h20Z"/>
        <path d="M562.2,10.4h3v47.5h-3V10.4Z"/>
        <path d="M611,10.4v2.9h-17.5v44.6h-2.9V13.4h-17.5v-2.9h38Z"/>
        <path d="M652.2,58l-5.4-12h-28.9l-5.4,12h-3.3l21.3-47.5h3.5l21.3,47.5h-3.3,0ZM632.4,13.6l-13.2,29.5h26.5l-13.2-29.5h0Z"/>
        <path d="M664.2,10.4h3v44.6h27.2v2.9h-30.2V10.4Z"/>
      </g>
      <polygon class="st3" points="116.2 47.7 101.4 62.5 95.2 68.7 65.6 68.7 101.4 32.9 116.2 47.7"/>
      <polygon class="st1" points="116.2 47.7 101.4 62.5 86.6 47.7 53.8 14.8 68.5 0 68.6 0 101.4 32.9 116.2 47.7"/>
      <polygon class="st0" points="85 16.4 70.2 31.2 68.5 29.6 83.3 14.8 68.5 0 68.5 0 68.6 0 85 16.4"/>
      <polygon class="st0" points="99.7 64.1 84.9 49.3 86.6 47.7 101.4 62.4 99.7 64.1"/>
      <rect class="st1" x="58.1" y="4.4" width="20.8" height="20.8" transform="translate(9.6 52.8) rotate(-45)"/>
      <polygon class="st1" points="116.2 47.7 101.4 62.5 70.2 31.2 85 16.4 99.8 31.2 101.4 32.9 116.2 47.7"/>
      <polygon class="st2" points="83.3 14.7 68.5 29.6 29.6 68.5 0 68.5 68.5 0 68.5 0 68.5 0 83.3 14.7"/>
    </g>
  </g>
</svg>